{
.appVersion = "1357";
classes = (
{
code = "u10B40 u10B41 u10B42 u10B43 u10B44 u10B45 u10B46 u10B47 u10B48 u10B49 u10B4A u10B4B u10B4C u10B4E u10B4F u10B50 u10B51 u10B52 u10B53 u10B54 u10B55";
name = class1;
}
);
copyright = "Copyright 2017-2021 Google Inc. All Rights Reserved.";
customParameters = (
{
name = glyphOrder;
value = (
.notdef,
NULL,
CR,
space,
u10B40,
u10B41,
u10B42,
u10B43,
u10B44,
u10B45,
u10B46,
u10B47,
u10B48,
u10B49,
u10B4A,
u10B4B,
u10B4C,
u10B4D,
u10B4E,
u10B4F,
u10B50,
u10B51,
u10B52,
u10B53,
u10B54,
u10B55,
u10B58,
u10B59,
u10B5A,
u10B5B,
u10B5C,
u10B5D,
u10B5E,
u10B5F,
u10B4D.alt01,
u10B4D10B4D,
u10B51.alt01,
u10B4210B45,
u10B4710B45,
u10B4910B45,
u10B4D10B45,
u10B4F10B4B,
u10B5310B45,
u10B5510B45,
u10B4D10B43,
uni00A0
);
},
{
name = unicodeRanges;
value = (
0,
1,
57
);
},
{
name = "Has WWS Names";
value = 1;
},
{
name = fsType;
value = (
);
},
{
name = codePageRanges;
value = (
1252
);
},
{
name = description;
value = "Designed by Monotype design team.";
},
{
name = license;
value = "This Font Software is licensed under the SIL Open Font License, Version 1.1. This Font Software is distributed on an \"AS IS\" BASIS, WITHOUT WARRANTIES OR CONDITIONS OF ANY KIND, either express or implied. See the SIL Open Font License for the specific language, permissions and limitations governing your use of this Font Software.";
},
{
name = licenseURL;
value = "http://scripts.sil.org/OFL";
},
{
name = vendorID;
value = GOOG;
},
{
name = trademark;
value = "Noto is a trademark of Google Inc.";
},
{
name = versionString;
value = "Version 2.001";
}
);
date = "2021-12-16 18:44:18 +0000";
designer = "Monotype Design Team";
designerURL = "http://www.monotype.com/studio";
disablesAutomaticAlignment = 1;
disablesNiceNames = 1;
familyName = "Noto Sans Inscriptional Parthian";
featurePrefixes = (
{

glyphs = (
{
glyphname = .notdef;
lastChange = "2017-03-01 21:25:01 +0000";
layers = (
{
layerId = UUID0;
paths = (
{
closed = 1;
nodes = (
"505 0 LINE",
"505 714 LINE",
"94 714 LINE",
"94 0 LINE"
);
},
{
closed = 1;
nodes = (
"145 663 LINE",
"454 663 LINE",
"454 51 LINE",
"145 51 LINE"
);
}
);
width = 600;
}
);
},
{
glyphname = u10B40;
lastChange = "2017-03-01 21:25:01 +0000";
layers = (
{
layerId = UUID0;
paths = (
{
closed = 1;
nodes = (
"662 0 LINE",
"662 536 LINE",
"574 536 LINE",
"574 74 LINE",
"502 74 LINE",
"262 536 LINE",
"162 536 LINE",
"411 74 LINE",
"5 74 LINE",
"5 0 LINE"
);
}
);
width = 747;
}
);
unicode = 10B40;
},
{
glyphname = u10B41;
lastChange = "2017-03-01 21:25:01 +0000";
layers = (
{
layerId = UUID0;
paths = (
{
closed = 1;
nodes = (
"496 0 LINE SMOOTH",
"719 0 OFFCURVE",
"838 99 OFFCURVE",
"838 293 CURVE SMOOTH",
"838 459 OFFCURVE",
"758 545 OFFCURVE",
"604 545 CURVE SMOOTH",
"567 545 OFFCURVE",
"521 535 OFFCURVE",
"469 515 CURVE SMOOTH",
"415 494 OFFCURVE",
"364 484 OFFCURVE",
"313 484 CURVE SMOOTH",
"246 484 OFFCURVE",
"195 508 OFFCURVE",
"162 555 CURVE",
"104 503 LINE",
"158 437 OFFCURVE",
"225 410 OFFCURVE",
"313 410 CURVE SMOOTH",
"373 410 OFFCURVE",
"428 420 OFFCURVE",
"481 441 CURVE SMOOTH",
"531 461 OFFCURVE",
"569 471 OFFCURVE",
"602 471 CURVE SMOOTH",
"698 471 OFFCURVE",
"747 411 OFFCURVE",
"747 300 CURVE SMOOTH",
"747 142 OFFCURVE",
"675 74 OFFCURVE",
"497 74 CURVE SMOOTH",
"15 74 LINE",
"15 0 LINE"
);
}
);
width = 872;
}
);
unicode = 10B41;
},
{
glyphname = u10B42;
lastChange = "2017-03-01 21:25:01 +0000";
layers = (
{
layerId = UUID0;
paths = (
{
closed = 1;
nodes = (
"31 -10 LINE SMOOTH",
"234 -10 OFFCURVE",
"394 80 OFFCURVE",
"486 248 CURVE SMOOTH",
"532 332 OFFCURVE",
"558 428 OFFCURVE",
"563 536 CURVE",
"486 536 LINE",
"417 429 OFFCURVE",
"322 376 OFFCURVE",
"201 376 CURVE SMOOTH",
"141 376 OFFCURVE",
"96 393 OFFCURVE",
"61 446 CURVE",
"0 396 LINE",
"48 325 OFFCURVE",
"110 301 OFFCURVE",
"201 301 CURVE SMOOTH",
"300 301 OFFCURVE",
"385 334 OFFCURVE",
"458 401 CURVE",
"430 296 OFFCURVE",
"377 214 OFFCURVE",
"300 154 CURVE SMOOTH",
"222 94 OFFCURVE",
"127 64 OFFCURVE",
"15 64 CURVE",
"15 -10 LINE"
);
}
);
width = 605;
}
);
unicode = 10B42;
},
{
glyphname = u10B43;
lastChange = "2017-03-01 21:25:01 +0000";
layers = (
{
layerId = UUID0;
paths = (
{
closed = 1;
nodes = (
"355 419 LINE SMOOTH",
"288 419 OFFCURVE",
"218 423 OFFCURVE",
"189 465 CURVE SMOOTH",
"178 481 OFFCURVE",
"173 505 OFFCURVE",
"173 536 CURVE",
"85 536 LINE",
"86 469 OFFCURVE",
"102 423 OFFCURVE",
"141 393 CURVE SMOOTH",
"183 360 OFFCURVE",
"255 345 OFFCURVE",
"360 345 CURVE SMOOTH",
"503 345 LINE",
"465 163 OFFCURVE",
"327 112 OFFCURVE",
"110 112 CURVE SMOOTH",
"39 112 LINE",
"39 38 LINE",
"87 38 LINE SMOOTH",
"408 38 OFFCURVE",
"572 121 OFFCURVE",
"608 419 CURVE"
);
},
{
closed = 1;
nodes = (
"89 -129 LINE",
"98 -94 OFFCURVE",
"135 -77 OFFCURVE",
"182 -77 CURVE SMOOTH",
"234 -77 OFFCURVE",
"265 -94 OFFCURVE",
"275 -129 CURVE",
"335 -129 LINE",
"323 -51 OFFCURVE",
"270 -8 OFFCURVE",
"183 -8 CURVE SMOOTH",
"103 -8 OFFCURVE",
"39 -53 OFFCURVE",
"29 -129 CURVE"
);
}
);
width = 654;
}
);
unicode = 10B43;
},
{
glyphname = u10B44;
lastChange = "2017-03-01 21:25:01 +0000";
layers = (
{
layerId = UUID0;
paths = (
{
closed = 1;
nodes = (
"331 -10 OFFCURVE",
"394 103 OFFCURVE",
"394 249 CURVE",
"555 249 LINE",
"555 0 LINE",
"643 0 LINE",
"643 536 LINE",
"555 536 LINE",
"555 323 LINE",
"394 323 LINE",
"394 536 LINE",
"306 536 LINE",
"306 323 LINE",
"264 323 LINE SMOOTH",
"116 323 OFFCURVE",
"42 264 OFFCURVE",
"42 140 CURVE SMOOTH",
"42 48 OFFCURVE",
"96 -10 OFFCURVE",
"196 -10 CURVE SMOOTH"
);
},
{
closed = 1;
nodes = (
"156 64 OFFCURVE",
"133 93 OFFCURVE",
"133 142 CURVE SMOOTH",
"133 218 OFFCURVE",
"174 249 OFFCURVE",
"267 249 CURVE SMOOTH",
"306 249 LINE",
"306 125 OFFCURVE",
"267 64 OFFCURVE",
"199 64 CURVE SMOOTH"
);
}
);
width = 728;
}
);
unicode = 10B44;
},
{
glyphname = u10B45;
lastChange = "2017-03-01 21:25:01 +0000";
layers = (
{
layerId = UUID0;
paths = (
{
closed = 1;
nodes = (
"201 -10 LINE SMOOTH",
"398 -10 OFFCURVE",
"531 112 OFFCURVE",
"531 305 CURVE SMOOTH",
"531 448 OFFCURVE",
"440 546 OFFCURVE",
"299 546 CURVE SMOOTH",
"149 546 OFFCURVE",
"48 460 OFFCURVE",
"36 302 CURVE",
"124 302 LINE",
"132 409 OFFCURVE",
"190 472 OFFCURVE",
"298 472 CURVE SMOOTH",
"386 472 OFFCURVE",
"440 394 OFFCURVE",
"440 305 CURVE SMOOTH",
"440 157 OFFCURVE",
"359 68 OFFCURVE",
"203 68 CURVE SMOOTH",
"176 68 LINE",
"176 -10 LINE"
);
}
);
width = 586;
}
);
unicode = 10B45;
},
{
glyphname = u10B46;
lastChange = "2017-03-01 21:25:01 +0000";
layers = (
{
layerId = UUID0;
paths = (
{
closed = 1;
nodes = (
"193 -10 OFFCURVE",
"246 46 OFFCURVE",
"246 132 CURVE SMOOTH",
"246 215 OFFCURVE",
"194 270 OFFCURVE",
"194 322 CURVE SMOOTH",
"194 390 OFFCURVE",
"233 438 OFFCURVE",
"290 491 CURVE",
"224 546 LINE",
"146 467 OFFCURVE",
"106 392 OFFCURVE",
"106 320 CURVE SMOOTH",
"106 263 OFFCURVE",
"158 198 OFFCURVE",
"158 131 CURVE SMOOTH",
"158 91 OFFCURVE",
"133 64 OFFCURVE",
"92 64 CURVE SMOOTH",
"61 64 OFFCURVE",
"37 68 OFFCURVE",
"19 76 CURVE",
"19 2 LINE",
"42 -5 OFFCURVE",
"82 -10 OFFCURVE",
"106 -10 CURVE SMOOTH"
);
}
);
width = 328;
}
);
unicode = 10B46;
},
{
glyphname = u10B47;
lastChange = "2017-03-01 21:25:01 +0000";
layers = (
{
layerId = UUID0;
paths = (
{
closed = 1;
nodes = (
"89 -10 OFFCURVE",
"179 40 OFFCURVE",
"239 104 CURVE SMOOTH",
"295 163 OFFCURVE",
"334 231 OFFCURVE",
"352 304 CURVE",
"367 213 OFFCURVE",
"401 140 OFFCURVE",
"458 83 CURVE SMOOTH",
"514 27 OFFCURVE",
"582 0 OFFCURVE",
"660 0 CURVE SMOOTH",
"747 0 LINE",
"747 536 LINE",
"659 536 LINE",
"659 74 LINE",
"611 74 OFFCURVE",
"568 94 OFFCURVE",
"528 131 CURVE SMOOTH",
"436 217 OFFCURVE",
"398 382 OFFCURVE",
"396 536 CURVE",
"308 536 LINE",
"308 405 OFFCURVE",
"275 288 OFFCURVE",
"218 204 CURVE SMOOTH",
"168 131 OFFCURVE",
"86 64 OFFCURVE",
"10 64 CURVE",
"10 -10 LINE"
);
}
);
width = 832;
}
);
unicode = 10B47;
},
{
glyphname = u10B48;
lastChange = "2017-03-01 21:25:01 +0000";
layers = (
{
layerId = UUID0;
paths = (
{
closed = 1;
nodes = (
"476 0 LINE SMOOTH",
"565 0 OFFCURVE",
"636 37 OFFCURVE",
"688 110 CURVE SMOOTH",
"740 184 OFFCURVE",
"769 287 OFFCURVE",
"774 419 CURVE",
"603 419 LINE SMOOTH",
"574 419 OFFCURVE",
"554 422 OFFCURVE",
"543 429 CURVE SMOOTH",
"517 447 OFFCURVE",
"511 484 OFFCURVE",
"511 536 CURVE",
"423 536 LINE",
"423 467 OFFCURVE",
"436 417 OFFCURVE",
"461 387 CURVE SMOOTH",
"487 356 OFFCURVE",
"530 342 OFFCURVE",
"590 342 CURVE SMOOTH",
"677 342 LINE",
"657 166 OFFCURVE",
"588 74 OFFCURVE",
"474 74 CURVE SMOOTH",
"428 74 LINE",
"428 0 LINE"
);
},
{
closed = 1;
nodes = (
"104 0 LINE SMOOTH",
"195 0 OFFCURVE",
"266 36 OFFCURVE",
"318 107 CURVE SMOOTH",
"370 179 OFFCURVE",
"398 283 OFFCURVE",
"404 419 CURVE",
"233 419 LINE SMOOTH",
"192 419 OFFCURVE",
"169 426 OFFCURVE",
"156 445 CURVE SMOOTH",
"144 463 OFFCURVE",
"141 492 OFFCURVE",
"141 536 CURVE",
"53 536 LINE",
"53 467 OFFCURVE",
"66 417 OFFCURVE",
"92 387 CURVE SMOOTH",
"118 357 OFFCURVE",
"160 342 OFFCURVE",
"220 342 CURVE SMOOTH",
"307 342 LINE",
"293 167 OFFCURVE",
"217 74 OFFCURVE",
"103 74 CURVE SMOOTH",
"58 74 LINE",
"58 0 LINE"
);
}
);
width = 816;
}
);
unicode = 10B48;
},
{
glyphname = u10B49;
lastChange = "2017-03-01 21:25:01 +0000";
layers = (
{
layerId = UUID0;
paths = (
{
closed = 1;
nodes = (
"145 -8 OFFCURVE",
"210 63 OFFCURVE",
"210 204 CURVE SMOOTH",
"210 536 LINE",
"122 536 LINE",
"122 204 LINE SMOOTH",
"122 107 OFFCURVE",
"90 66 OFFCURVE",
"20 66 CURVE",
"20 -8 LINE"
);
}
);
width = 290;
}
);
unicode = 10B49;
},
{
glyphname = u10B4A;
lastChange = "2017-03-01 21:25:01 +0000";
layers = (
{
layerId = UUID0;
paths = (
{
closed = 1;
nodes = (
"359 0 LINE SMOOTH",
"500 0 OFFCURVE",
"608 35 OFFCURVE",
"687 111 CURVE SMOOTH",
"764 186 OFFCURVE",
"807 288 OFFCURVE",
"815 419 CURVE",
"561 419 LINE SMOOTH",
"489 419 OFFCURVE",
"462 454 OFFCURVE",
"462 536 CURVE",
"374 536 LINE",
"374 469 OFFCURVE",
"389 420 OFFCURVE",
"418 390 CURVE SMOOTH",
"447 360 OFFCURVE",
"495 345 OFFCURVE",
"561 345 CURVE SMOOTH",
"719 345 LINE",
"685 166 OFFCURVE",
"564 74 OFFCURVE",
"358 74 CURVE SMOOTH",
"15 74 LINE",
"15 0 LINE"
);
}
);
width = 857;
}
);
unicode = 10B4A;
},
{
glyphname = u10B4B;
lastChange = "2017-03-01 21:25:01 +0000";
layers = (
{
layerId = UUID0;
paths = (
{
closed = 1;
nodes = (
"103 0 LINE SMOOTH",
"303 0 OFFCURVE",
"415 96 OFFCURVE",
"415 240 CURVE SMOOTH",
"415 362 OFFCURVE",
"323 435 OFFCURVE",
"201 437 CURVE",
"201 760 LINE",
"113 760 LINE",
"113 428 LINE",
"66 416 OFFCURVE",
"26 391 OFFCURVE",
"-7 351 CURVE",
"45 301 LINE",
"79 342 OFFCURVE",
"125 363 OFFCURVE",
"186 363 CURVE SMOOTH",
"260 363 OFFCURVE",
"324 317 OFFCURVE",
"324 238 CURVE SMOOTH",
"324 129 OFFCURVE",
"248 74 OFFCURVE",
"95 74 CURVE SMOOTH",
"60 74 LINE",
"60 0 LINE"
);
}
);
width = 470;
}
);
unicode = 10B4B;
},
{
glyphname = u10B4C;
lastChange = "2017-03-01 21:25:01 +0000";
layers = (
{
layerId = UUID0;
paths = (
{
closed = 1;
nodes = (
"136 -10 OFFCURVE",
"194 39 OFFCURVE",
"231 147 CURVE SMOOTH",
"250 202 OFFCURVE",
"265 277 OFFCURVE",
"275 372 CURVE",
"509 372 LINE",
"501 276 OFFCURVE",
"483 202 OFFCURVE",
"453 149 CURVE SMOOTH",
"423 96 OFFCURVE",
"385 69 OFFCURVE",
"338 68 CURVE",
"338 -10 LINE",
"415 -10 OFFCURVE",
"477 32 OFFCURVE",
"524 114 CURVE SMOOTH",
"572 197 OFFCURVE",
"599 308 OFFCURVE",
"603 446 CURVE",
"280 446 LINE",
"285 505 OFFCURVE",
"298 546 OFFCURVE",
"318 571 CURVE SMOOTH",
"338 596 OFFCURVE",
"371 608 OFFCURVE",
"415 608 CURVE",
"438 686 LINE",
"382 686 OFFCURVE",
"337 678 OFFCURVE",
"305 663 CURVE SMOOTH",
"228 626 OFFCURVE",
"203 546 OFFCURVE",
"193 446 CURVE",
"159 448 OFFCURVE",
"134 455 OFFCURVE",
"120 468 CURVE SMOOTH",
"105 481 OFFCURVE",
"96 504 OFFCURVE",
"93 536 CURVE",
"5 536 LINE",
"15 427 OFFCURVE",
"71 378 OFFCURVE",
"188 372 CURVE",
"175 261 OFFCURVE",
"157 138 OFFCURVE",
"111 94 CURVE SMOOTH",
"93 77 OFFCURVE",
"69 68 OFFCURVE",
"38 68 CURVE",
"38 -10 LINE"
);
}
);
width = 659;
}
);
unicode = 10B4C;
},
{
glyphname = u10B4D;
lastChange = "2017-03-01 21:25:01 +0000";
layers = (
{
layerId = UUID0;
paths = (
{
closed = 1;
nodes = (
"788 -166 LINE",
"788 536 LINE",
"700 536 LINE",
"700 -92 LINE",
"15 -92 LINE",
"15 -166 LINE"
);
}
);
width = 873;
}
);
unicode = 10B4D;
},
{
glyphname = u10B4E;
lastChange = "2017-03-01 21:25:01 +0000";
layers = (
{
layerId = UUID0;
paths = (
{
closed = 1;
nodes = (
"210 -10 OFFCURVE",
"288 162 OFFCURVE",
"288 388 CURVE SMOOTH",
"288 458 LINE",
"538 458 LINE",
"538 323 LINE SMOOTH",
"538 187 OFFCURVE",
"494 88 OFFCURVE",
"384 0 CURVE",
"499 0 LINE",
"592 85 OFFCURVE",
"630 185 OFFCURVE",
"630 323 CURVE SMOOTH",
"630 536 LINE",
"200 536 LINE",
"200 387 LINE SMOOTH",
"200 178 OFFCURVE",
"137 70 OFFCURVE",
"15 68 CURVE",
"15 -10 LINE"
);
}
);
width = 702;
}
);
unicode = 10B4E;
},
{
glyphname = u10B4F;
lastChange = "2017-03-01 21:25:01 +0000";
layers = (
{
layerId = UUID0;
paths = (
{
closed = 1;
nodes = (
"210 0 LINE SMOOTH",
"448 0 OFFCURVE",
"568 88 OFFCURVE",
"568 275 CURVE SMOOTH",
"568 339 OFFCURVE",
"550 389 OFFCURVE",
"515 426 CURVE SMOOTH",
"480 463 OFFCURVE",
"433 482 OFFCURVE",
"372 482 CURVE SMOOTH",
"354 482 OFFCURVE",
"332 480 OFFCURVE",
"305 476 CURVE SMOOTH",
"278 472 OFFCURVE",
"257 469 OFFCURVE",
"243 469 CURVE SMOOTH",
"206 469 OFFCURVE",
"189 489 OFFCURVE",
"189 536 CURVE",
"101 536 LINE",
"101 436 OFFCURVE",
"144 394 OFFCURVE",
"233 394 CURVE SMOOTH",
"247 394 OFFCURVE",
"264 397 OFFCURVE",
"290 401 CURVE SMOOTH",
"315 405 OFFCURVE",
"335 407 OFFCURVE",
"350 407 CURVE SMOOTH",
"437 407 OFFCURVE",
"478 357 OFFCURVE",
"478 269 CURVE SMOOTH",
"478 122 OFFCURVE",
"381 75 OFFCURVE",
"211 75 CURVE SMOOTH",
"15 75 LINE",
"15 0 LINE"
);
}
);
width = 623;
}
);
unicode = 10B4F;
},
{
glyphname = u10B50;
lastChange = "2017-03-01 21:25:01 +0000";
layers = (
{
layerId = UUID0;
paths = (
{
closed = 1;
nodes = (
"220 -10 OFFCURVE",
"302 195 OFFCURVE",
"302 440 CURVE",
"365 358 OFFCURVE",
"454 308 OFFCURVE",
"568 288 CURVE",
"553 170 OFFCURVE",
"478 68 OFFCURVE",
"368 68 CURVE",
"368 -10 LINE",
"542 -10 OFFCURVE",
"665 139 OFFCURVE",
"671 360 CURVE",
"469 360 OFFCURVE",
"349 460 OFFCURVE",
"265 652 CURVE",
"178 652 LINE",
"195 597 OFFCURVE",
"216 495 OFFCURVE",
"216 440 CURVE SMOOTH",
"216 249 OFFCURVE",
"167 68 OFFCURVE",
"15 68 CURVE",
"15 -10 LINE"
);
}
);
width = 709;
}
);
unicode = 10B50;
},
{
glyphname = u10B51;
lastChange = "2017-03-01 21:25:01 +0000";
layers = (
{
layerId = UUID0;
paths = (
{
closed = 1;
nodes = (
"470 -240 LINE SMOOTH",
"635 -240 OFFCURVE",
"712 -171 OFFCURVE",
"745 5 CURVE SMOOTH",
"816 382 LINE",
"841 297 OFFCURVE",
"872 253 OFFCURVE",
"919 232 CURVE SMOOTH",
"943 221 OFFCURVE",
"976 217 OFFCURVE",
"1018 217 CURVE SMOOTH",
"1143 217 LINE",
"1102 279 OFFCURVE",
"1090 316 OFFCURVE",
"1090 391 CURVE SMOOTH",
"1090 536 LINE",
"1002 536 LINE",
"1002 396 LINE SMOOTH",
"1002 351 OFFCURVE",
"1006 317 OFFCURVE",
"1015 295 CURVE",
"989 295 OFFCURVE",
"960 300 OFFCURVE",
"945 316 CURVE SMOOTH",
"929 334 OFFCURVE",
"911 365 OFFCURVE",
"896 409 CURVE SMOOTH",
"852 536 LINE",
"761 536 LINE",
"656 4 LINE SMOOTH",
"632 -116 OFFCURVE",
"575 -166 OFFCURVE",
"470 -166 CURVE SMOOTH",
"15 -166 LINE",
"15 -240 LINE"
);
}
);
width = 1191;
}
);
unicode = 10B51;
},
{
glyphname = u10B52;
lastChange = "2017-03-01 21:25:01 +0000";
layers = (
{
layerId = UUID0;
paths = (
{
closed = 1;
nodes = (
"162 -10 OFFCURVE",
"233 172 OFFCURVE",
"249 374 CURVE",
"266 373 OFFCURVE",
"295 372 OFFCURVE",
"336 372 CURVE SMOOTH",
"457 372 LINE",
"442 172 OFFCURVE",
"386 71 OFFCURVE",
"291 68 CURVE",
"291 -10 LINE",
"476 -10 OFFCURVE",
"541 209 OFFCURVE",
"549 446 CURVE",
"381 446 LINE SMOOTH",
"268 446 OFFCURVE",
"167 451 OFFCURVE",
"136 468 CURVE SMOOTH",
"112 481 OFFCURVE",
"101 490 OFFCURVE",
"93 536 CURVE",
"5 536 LINE",
"16 438 OFFCURVE",
"53 403 OFFCURVE",
"162 383 CURVE",
"151 229 OFFCURVE",
"114 71 OFFCURVE",
"-5 68 CURVE",
"-5 -10 LINE"
);
}
);
width = 605;
}
);
unicode = 10B52;
},
{
glyphname = u10B53;
lastChange = "2017-03-01 21:25:01 +0000";
layers = (
{
layerId = UUID0;
paths = (
{
closed = 1;
nodes = (
"86 0 LINE SMOOTH",
"273 0 OFFCURVE",
"419 26 OFFCURVE",
"510 117 CURVE SMOOTH",
"574 181 OFFCURVE",
"606 278 OFFCURVE",
"607 419 CURVE",
"299 419 LINE SMOOTH",
"206 419 OFFCURVE",
"172 444 OFFCURVE",
"172 536 CURVE",
"84 536 LINE",
"84 395 OFFCURVE",
"147 345 OFFCURVE",
"301 345 CURVE SMOOTH",
"512 345 LINE",
"509 161 OFFCURVE",
"370 74 OFFCURVE",
"83 74 CURVE SMOOTH",
"38 74 LINE",
"38 0 LINE"
);
}
);
width = 638;
}
);
unicode = 10B53;
},
{
glyphname = u10B54;
lastChange = "2017-03-01 21:25:01 +0000";
layers = (
{
layerId = UUID0;
paths = (
{
closed = 1;
nodes = (
"165 -70 LINE",
"175 -42 OFFCURVE",
"182 -19 OFFCURVE",
"186 0 CURVE",
"321 42 OFFCURVE",
"421 104 OFFCURVE",
"523 204 CURVE",
"472 267 LINE",
"382 183 OFFCURVE",
"285 120 OFFCURVE",
"201 86 CURVE",
"206 125 OFFCURVE",
"208 183 OFFCURVE",
"210 260 CURVE",
"324 315 OFFCURVE",
"424 389 OFFCURVE",
"509 482 CURVE",
"457 546 LINE",
"382 464 OFFCURVE",
"299 397 OFFCURVE",
"207 344 CURVE",
"201 414 OFFCURVE",
"183 464 OFFCURVE",
"154 496 CURVE SMOOTH",
"125 528 OFFCURVE",
"81 544 OFFCURVE",
"20 544 CURVE",
"20 470 LINE",
"51 469 OFFCURVE",
"72 461 OFFCURVE",
"85 448 CURVE SMOOTH",
"98 435 OFFCURVE",
"107 413 OFFCURVE",
"113 383 CURVE SMOOTH",
"119 354 OFFCURVE",
"122 312 OFFCURVE",
"122 258 CURVE SMOOTH",
"122 121 OFFCURVE",
"114 54 OFFCURVE",
"79 -70 CURVE"
);
}
);
width = 589;
}
);
unicode = 10B54;
},
{
glyphname = u10B55;
lastChange = "2017-03-01 21:25:01 +0000";
layers = (
{
layerId = UUID0;
paths = (
{
closed = 1;
nodes = (
"136 0 LINE",
"229 116 OFFCURVE",
"262 250 OFFCURVE",
"263 402 CURVE",
"296 443 OFFCURVE",
"348 472 OFFCURVE",
"413 472 CURVE SMOOTH",
"488 472 OFFCURVE",
"530 426 OFFCURVE",
"530 342 CURVE SMOOTH",
"530 226 OFFCURVE",
"471 83 OFFCURVE",
"394 0 CURVE",
"499 0 LINE",
"566 79 OFFCURVE",
"621 228 OFFCURVE",
"621 338 CURVE SMOOTH",
"621 454 OFFCURVE",
"566 546 OFFCURVE",
"423 546 CURVE SMOOTH",
"357 546 OFFCURVE",
"301 525 OFFCURVE",
"257 495 CURVE",
"248 564 OFFCURVE",
"229 617 OFFCURVE",
"217 652 CURVE",
"129 652 LINE",
"161 574 OFFCURVE",
"177 494 OFFCURVE",
"177 409 CURVE SMOOTH",
"177 253 OFFCURVE",
"142 123 OFFCURVE",
"34 0 CURVE"
);
}
);
width = 690;
}
);
unicode = 10B55;
},
{
glyphname = u10B58;
lastChange = "2017-03-01 21:25:01 +0000";
layers = (
{
layerId = UUID0;
paths = (
{
closed = 1;
nodes = (
"145 -8 OFFCURVE",
"210 63 OFFCURVE",
"210 204 CURVE SMOOTH",
"210 714 LINE",
"122 714 LINE",
"122 204 LINE SMOOTH",
"122 109 OFFCURVE",
"92 70 OFFCURVE",
"20 70 CURVE",
"20 -8 LINE"
);
}
);
width = 317;
}
);
unicode = 10B58;
},
{
glyphname = u10B59;
lastChange = "2017-03-01 21:25:01 +0000";
layers = (
{
layerId = UUID0;
paths = (
{
closed = 1;
nodes = (
"366 -8 OFFCURVE",
"430 65 OFFCURVE",
"430 204 CURVE SMOOTH",
"430 714 LINE",
"342 714 LINE",
"342 204 LINE",
"342 109 OFFCURVE",
"313 70 OFFCURVE",
"240 70 CURVE",
"240 -8 LINE"
);
},
{
closed = 1;
nodes = (
"145 -8 OFFCURVE",
"210 63 OFFCURVE",
"210 204 CURVE SMOOTH",
"210 714 LINE",
"122 714 LINE",
"122 204 LINE",
"122 109 OFFCURVE",
"92 70 OFFCURVE",
"20 70 CURVE",
"20 -8 LINE"
);
}
);
width = 538;
}
);
unicode = 10B59;
},
{
glyphname = u10B5A;
lastChange = "2017-03-01 21:25:01 +0000";
layers = (
{
layerId = UUID0;
paths = (
{
closed = 1;
nodes = (
"585 -8 OFFCURVE",
"650 63 OFFCURVE",
"650 204 CURVE SMOOTH",
"650 714 LINE",
"562 714 LINE",
"562 204 LINE",
"562 109 OFFCURVE",
"532 70 OFFCURVE",
"460 70 CURVE",
"460 -8 LINE"
);
},
{
closed = 1;
nodes = (
"145 -8 OFFCURVE",
"210 63 OFFCURVE",
"210 204 CURVE SMOOTH",
"210 714 LINE",
"122 714 LINE",
"122 204 LINE",
"122 109 OFFCURVE",
"92 70 OFFCURVE",
"20 70 CURVE",
"20 -8 LINE"
);
},
{
closed = 1;
nodes = (
"366 -8 OFFCURVE",
"430 65 OFFCURVE",
"430 204 CURVE SMOOTH",
"430 714 LINE",
"342 714 LINE",
"342 204 LINE",
"342 109 OFFCURVE",
"313 70 OFFCURVE",
"240 70 CURVE",
"240 -8 LINE"
);
}
);
width = 757;
}
);
unicode = 10B5A;
},
{
glyphname = u10B5B;
lastChange = "2017-03-01 21:25:01 +0000";
layers = (
{
layerId = UUID0;
paths = (
{
closed = 1;
nodes = (
"806 -8 OFFCURVE",
"870 65 OFFCURVE",
"870 204 CURVE SMOOTH",
"870 714 LINE",
"782 714 LINE",
"782 204 LINE",
"782 109 OFFCURVE",
"752 70 OFFCURVE",
"680 70 CURVE",
"680 -8 LINE"
);
},
{
closed = 1;
nodes = (
"145 -8 OFFCURVE",
"210 63 OFFCURVE",
"210 204 CURVE SMOOTH",
"210 714 LINE",
"122 714 LINE",
"122 204 LINE",
"122 109 OFFCURVE",
"92 70 OFFCURVE",
"20 70 CURVE",
"20 -8 LINE"
);
},
{
closed = 1;
nodes = (
"366 -8 OFFCURVE",
"430 65 OFFCURVE",
"430 204 CURVE SMOOTH",
"430 714 LINE",
"342 714 LINE",
"342 204 LINE",
"342 109 OFFCURVE",
"313 70 OFFCURVE",
"240 70 CURVE",
"240 -8 LINE"
);
},
{
closed = 1;
nodes = (
"585 -8 OFFCURVE",
"650 63 OFFCURVE",
"650 204 CURVE SMOOTH",
"650 714 LINE",
"562 714 LINE",
"562 204 LINE",
"562 109 OFFCURVE",
"532 70 OFFCURVE",
"460 70 CURVE",
"460 -8 LINE"
);
}
);
width = 978;
}
);
unicode = 10B5B;
},
{
glyphname = u10B5C;
lastChange = "2017-03-01 21:25:01 +0000";
layers = (
{
layerId = UUID0;
paths = (
{
closed = 1;
nodes = (
"597 -10 LINE",
"597 68 LINE",
"362 68 OFFCURVE",
"212 174 OFFCURVE",
"147 387 CURVE",
"185 353 OFFCURVE",
"240 335 OFFCURVE",
"315 335 CURVE SMOOTH",
"455 335 OFFCURVE",
"559 404 OFFCURVE",
"567 536 CURVE",
"479 536 LINE",
"469 458 OFFCURVE",
"409 413 OFFCURVE",
"308 413 CURVE SMOOTH",
"210 413 OFFCURVE",
"148 442 OFFCURVE",
"112 536 CURVE",
"39 536 LINE",
"54 219 OFFCURVE",
"253 -10 OFFCURVE",
"571 -10 CURVE SMOOTH"
);
}
);
width = 656;
}
);
unicode = 10B5C;
},
{
glyphname = u10B5D;
lastChange = "2017-03-01 21:25:01 +0000";
layers = (
{
layerId = UUID0;
paths = (
{
closed = 1;
nodes = (
"266 0 LINE SMOOTH",
"486 0 OFFCURVE",
"602 99 OFFCURVE",
"602 294 CURVE SMOOTH",
"602 448 OFFCURVE",
"523 546 OFFCURVE",
"378 546 CURVE SMOOTH",
"271 546 OFFCURVE",
"181 462 OFFCURVE",
"181 358 CURVE SMOOTH",
"181 251 OFFCURVE",
"263 171 OFFCURVE",
"377 171 CURVE SMOOTH",
"427 171 OFFCURVE",
"472 187 OFFCURVE",
"508 218 CURVE",
"486 120 OFFCURVE",
"381 78 OFFCURVE",
"258 78 CURVE SMOOTH",
"39 78 LINE",
"39 0 LINE"
);
},
{
closed = 1;
nodes = (
"320 245 OFFCURVE",
"273 291 OFFCURVE",
"273 358 CURVE SMOOTH",
"273 427 OFFCURVE",
"319 472 OFFCURVE",
"387 472 CURVE SMOOTH",
"454 472 OFFCURVE",
"502 426 OFFCURVE",
"502 358 CURVE SMOOTH",
"502 295 OFFCURVE",
"451 245 OFFCURVE",
"387 245 CURVE SMOOTH"
);
}
);
width = 661;
}
);
unicode = 10B5D;
},
{
glyphname = u10B5E;
lastChange = "2017-03-01 21:25:01 +0000";
layers = (
{
layerId = UUID0;
paths = (
{
closed = 1;
nodes = (
"871 0 LINE",
"871 78 LINE",
"239 78 LINE SMOOTH",
"179 78 OFFCURVE",
"148 103 OFFCURVE",
"148 152 CURVE SMOOTH",
"148 186 OFFCURVE",
"172 208 OFFCURVE",
"219 224 CURVE SMOOTH",
"271 242 OFFCURVE",
"306 257 OFFCURVE",
"322 268 CURVE SMOOTH",
"355 291 OFFCURVE",
"372 324 OFFCURVE",
"372 365 CURVE SMOOTH",
"372 416 OFFCURVE",
"351 449 OFFCURVE",
"287 479 CURVE SMOOTH",
"259 492 OFFCURVE",
"240 501 OFFCURVE",
"231 508 CURVE SMOOTH",
"210 524 OFFCURVE",
"202 537 OFFCURVE",
"202 563 CURVE SMOOTH",
"202 608 OFFCURVE",
"233 635 OFFCURVE",
"286 635 CURVE SMOOTH",
"323 635 OFFCURVE",
"358 614 OFFCURVE",
"396 570 CURVE SMOOTH",
"473 480 OFFCURVE",
"524 428 OFFCURVE",
"626 428 CURVE SMOOTH",
"734 428 OFFCURVE",
"796 489 OFFCURVE",
"796 588 CURVE SMOOTH",
"796 691 OFFCURVE",
"731 746 OFFCURVE",
"614 746 CURVE",
"614 668 LINE",
"681 668 OFFCURVE",
"707 641 OFFCURVE",
"707 587 CURVE SMOOTH",
"707 533 OFFCURVE",
"684 506 OFFCURVE",
"628 506 CURVE SMOOTH",
"572 506 OFFCURVE",
"543 526 OFFCURVE",
"472 611 CURVE SMOOTH",
"421 673 OFFCURVE",
"366 714 OFFCURVE",
"286 714 CURVE SMOOTH",
"189 714 OFFCURVE",
"111 642 OFFCURVE",
"111 563 CURVE SMOOTH",
"111 516 OFFCURVE",
"126 482 OFFCURVE",
"153 459 CURVE SMOOTH",
"167 447 OFFCURVE",
"192 434 OFFCURVE",
"228 421 CURVE SMOOTH",
"263 408 OFFCURVE",
"281 389 OFFCURVE",
"281 362 CURVE SMOOTH",
"281 333 OFFCURVE",
"260 314 OFFCURVE",
"211 299 CURVE SMOOTH",
"163 284 OFFCURVE",
"131 270 OFFCURVE",
"113 258 CURVE SMOOTH",
"75 233 OFFCURVE",
"59 197 OFFCURVE",
"59 151 CURVE SMOOTH",
"59 54 OFFCURVE",
"129 0 OFFCURVE",
"239 0 CURVE SMOOTH"
);
}
);
width = 910;
}
);
unicode = 10B5E;
},
{
glyphname = u10B5F;
lastChange = "2017-03-01 21:25:01 +0000";
layers = (
{
layerId = UUID0;
paths = (
{
closed = 1;
nodes = (
"266 0 LINE SMOOTH",
"487 0 OFFCURVE",
"602 93 OFFCURVE",
"602 272 CURVE SMOOTH",
"602 412 OFFCURVE",
"527 493 OFFCURVE",
"387 503 CURVE",
"387 714 LINE",
"299 714 LINE",
"299 500 LINE",
"253 493 OFFCURVE",
"215 482 OFFCURVE",
"182 467 CURVE",
"182 388 LINE",
"230 412 OFFCURVE",
"293 427 OFFCURVE",
"349 427 CURVE SMOOTH",
"458 427 OFFCURVE",
"511 374 OFFCURVE",
"511 267 CURVE SMOOTH",
"511 125 OFFCURVE",
"419 78 OFFCURVE",
"258 78 CURVE SMOOTH",
"39 78 LINE",
"39 0 LINE"
);
}
);
width = 661;
}
);
unicode = 10B5F;
},
{
glyphname = u10B4D.alt01;
lastChange = "2017-03-01 21:25:01 +0000";
layers = (
{
layerId = UUID0;
paths = (
{
closed = 1;
nodes = (
"214 -166 LINE",
"214 536 LINE",
"126 536 LINE",
"126 -92 LINE",
"-657 -92 LINE",
"-657 -166 LINE"
);
}
);
width = 299;
}
);
},
{
glyphname = u10B4D10B4D;
lastChange = "2017-03-01 21:25:01 +0000";
layers = (
{
layerId = UUID0;
paths = (
{
closed = 1;
nodes = (
"956 -301 LINE",
"956 536 LINE",
"868 536 LINE",
"868 -227 LINE",
"15 -227 LINE",
"15 -301 LINE"
);
},
{
closed = 1;
nodes = (
"715 -166 LINE",
"715 536 LINE",
"627 536 LINE",
"627 -92 LINE",
"15 -92 LINE",
"15 -166 LINE"
);
}
);
width = 1041;
}
);
},
{
glyphname = u10B51.alt01;
lastChange = "2017-03-01 21:25:01 +0000";
layers = (
{
layerId = UUID0;
paths = (
{
closed = 1;
nodes = (
"-125 -240 LINE SMOOTH",
"38 -240 OFFCURVE",
"115 -173 OFFCURVE",
"148 0 CURVE SMOOTH",
"221 382 LINE",
"257 259 OFFCURVE",
"302 217 OFFCURVE",
"422 217 CURVE SMOOTH",
"547 217 LINE",
"506 280 OFFCURVE",
"495 320 OFFCURVE",
"495 395 CURVE SMOOTH",
"495 536 LINE",
"407 536 LINE",
"407 396 LINE SMOOTH",
"407 351 OFFCURVE",
"411 317 OFFCURVE",
"419 295 CURVE",
"351 295 OFFCURVE",
"331 325 OFFCURVE",
"301 409 CURVE SMOOTH",
"256 536 LINE",
"166 536 LINE",
"61 4 LINE SMOOTH",
"37 -116 OFFCURVE",
"-21 -166 OFFCURVE",
"-125 -166 CURVE SMOOTH",
"-581 -166 LINE",
"-581 -240 LINE"
);
}
);
width = 596;
}
);
},
{
glyphname = u10B4210B45;
lastChange = "2017-03-01 21:25:01 +0000";
layers = (
{
layerId = UUID0;
paths = (
{
closed = 1;
nodes = (
"742 -10 OFFCURVE",
"894 247 OFFCURVE",
"909 536 CURVE",
"832 536 LINE",
"763 429 OFFCURVE",
"668 376 OFFCURVE",
"547 376 CURVE SMOOTH",
"527 376 OFFCURVE",
"508 378 OFFCURVE",
"491 382 CURVE",
"464 310 LINE",
"488 304 OFFCURVE",
"516 301 OFFCURVE",
"547 301 CURVE SMOOTH",
"646 301 OFFCURVE",
"731 334 OFFCURVE",
"804 401 CURVE",
"750 206 OFFCURVE",
"617 64 OFFCURVE",
"391 64 CURVE SMOOTH",
"355 64 OFFCURVE",
"324 66 OFFCURVE",
"296 72 CURVE",
"346 112 OFFCURVE",
"399 182 OFFCURVE",
"399 279 CURVE SMOOTH",
"399 372 OFFCURVE",
"343 458 OFFCURVE",
"220 458 CURVE SMOOTH",
"119 458 OFFCURVE",
"39 375 OFFCURVE",
"39 274 CURVE SMOOTH",
"39 86 OFFCURVE",
"172 -10 OFFCURVE",
"391 -10 CURVE SMOOTH"
);
},
{
closed = 1;
nodes = (
"154 143 OFFCURVE",
"130 200 OFFCURVE",
"130 273 CURVE SMOOTH",
"130 337 OFFCURVE",
"169 384 OFFCURVE",
"222 384 CURVE SMOOTH",
"274 384 OFFCURVE",
"309 347 OFFCURVE",
"309 280 CURVE SMOOTH",
"309 207 OFFCURVE",
"269 146 OFFCURVE",
"208 106 CURVE"
);
}
);
width = 951;
}
);
},
{
glyphname = u10B4710B45;
lastChange = "2017-03-01 21:25:01 +0000";
layers = (
{
layerId = UUID0;
paths = (
{
closed = 1;
nodes = (
"523 -10 OFFCURVE",
"597 151 OFFCURVE",
"638 304 CURVE",
"667 130 OFFCURVE",
"779 0 OFFCURVE",
"946 0 CURVE SMOOTH",
"1033 0 LINE",
"1033 536 LINE",
"945 536 LINE",
"945 74 LINE",
"774 74 OFFCURVE",
"684 306 OFFCURVE",
"682 536 CURVE",
"594 536 LINE",
"590 331 OFFCURVE",
"501 64 OFFCURVE",
"322 64 CURVE SMOOTH",
"311 64 OFFCURVE",
"301 64 OFFCURVE",
"292 65 CURVE",
"342 104 OFFCURVE",
"399 176 OFFCURVE",
"399 279 CURVE SMOOTH",
"399 372 OFFCURVE",
"342 458 OFFCURVE",
"225 458 CURVE SMOOTH",
"119 458 OFFCURVE",
"39 378 OFFCURVE",
"39 266 CURVE SMOOTH",
"39 125 OFFCURVE",
"126 -10 OFFCURVE",
"312 -10 CURVE SMOOTH"
);
},
{
closed = 1;
nodes = (
"153 137 OFFCURVE",
"130 199 OFFCURVE",
"130 266 CURVE SMOOTH",
"130 330 OFFCURVE",
"167 384 OFFCURVE",
"220 384 CURVE SMOOTH",
"273 384 OFFCURVE",
"309 347 OFFCURVE",
"309 280 CURVE SMOOTH",
"309 203 OFFCURVE",
"269 138 OFFCURVE",
"202 100 CURVE"
);
}
);
width = 1118;
}
);
},
{
glyphname = u10B4910B45;
lastChange = "2017-03-01 21:25:01 +0000";
layers = (
{
layerId = UUID0;
paths = (
{
closed = 1;
nodes = (
"474 -10 OFFCURVE",
"630 35 OFFCURVE",
"630 224 CURVE SMOOTH",
"630 536 LINE",
"542 536 LINE",
"542 214 LINE SMOOTH",
"542 91 OFFCURVE",
"444 64 OFFCURVE",
"338 64 CURVE SMOOTH",
"322 64 OFFCURVE",
"308 65 OFFCURVE",
"294 67 CURVE",
"344 106 OFFCURVE",
"399 177 OFFCURVE",
"399 279 CURVE SMOOTH",
"399 372 OFFCURVE",
"342 458 OFFCURVE",
"225 458 CURVE SMOOTH",
"119 458 OFFCURVE",
"39 378 OFFCURVE",
"39 266 CURVE SMOOTH",
"39 125 OFFCURVE",
"128 -10 OFFCURVE",
"338 -10 CURVE SMOOTH"
);
},
{
closed = 1;
nodes = (
"154 140 OFFCURVE",
"130 201 OFFCURVE",
"130 266 CURVE SMOOTH",
"130 330 OFFCURVE",
"167 384 OFFCURVE",
"220 384 CURVE SMOOTH",
"273 384 OFFCURVE",
"309 347 OFFCURVE",
"309 280 CURVE SMOOTH",
"309 204 OFFCURVE",
"271 141 OFFCURVE",
"206 102 CURVE"
);
}
);
width = 715;
}
);
},
{
glyphname = u10B4D10B45;
lastChange = "2017-03-01 21:25:01 +0000";
layers = (
{
layerId = UUID0;
paths = (
{
closed = 1;
nodes = (
"617 -10 OFFCURVE",
"718 73 OFFCURVE",
"718 211 CURVE SMOOTH",
"718 536 LINE",
"630 536 LINE",
"630 213 LINE SMOOTH",
"630 101 OFFCURVE",
"542 64 OFFCURVE",
"395 64 CURVE SMOOTH",
"359 64 OFFCURVE",
"328 67 OFFCURVE",
"300 72 CURVE",
"348 112 OFFCURVE",
"399 182 OFFCURVE",
"399 279 CURVE SMOOTH",
"399 372 OFFCURVE",
"342 458 OFFCURVE",
"225 458 CURVE SMOOTH",
"119 458 OFFCURVE",
"39 378 OFFCURVE",
"39 266 CURVE SMOOTH",
"39 126 OFFCURVE",
"122 -10 OFFCURVE",
"389 -10 CURVE SMOOTH"
);
},
{
closed = 1;
nodes = (
"154 140 OFFCURVE",
"130 196 OFFCURVE",
"130 266 CURVE SMOOTH",
"130 330 OFFCURVE",
"167 384 OFFCURVE",
"220 384 CURVE SMOOTH",
"273 384 OFFCURVE",
"309 347 OFFCURVE",
"309 280 CURVE SMOOTH",
"309 206 OFFCURVE",
"272 144 OFFCURVE",
"211 105 CURVE"
);
}
);
width = 803;
}
);
},
{
glyphname = u10B4F10B4B;
lastChange = "2017-03-01 21:25:01 +0000";
layers = (
{
layerId = UUID0;
paths = (
{
closed = 1;
nodes = (
"523 0 LINE SMOOTH",
"762 0 OFFCURVE",
"881 88 OFFCURVE",
"881 275 CURVE SMOOTH",
"881 339 OFFCURVE",
"864 389 OFFCURVE",
"829 426 CURVE SMOOTH",
"794 463 OFFCURVE",
"746 482 OFFCURVE",
"686 482 CURVE SMOOTH",
"667 482 OFFCURVE",
"645 480 OFFCURVE",
"618 476 CURVE SMOOTH",
"591 472 OFFCURVE",
"571 469 OFFCURVE",
"557 469 CURVE SMOOTH",
"520 469 OFFCURVE",
"502 489 OFFCURVE",
"502 536 CURVE",
"415 536 LINE",
"415 436 OFFCURVE",
"457 394 OFFCURVE",
"546 394 CURVE SMOOTH",
"559 394 OFFCURVE",
"578 397 OFFCURVE",
"604 401 CURVE SMOOTH",
"628 405 OFFCURVE",
"648 407 OFFCURVE",
"664 407 CURVE SMOOTH",
"750 407 OFFCURVE",
"792 357 OFFCURVE",
"792 269 CURVE SMOOTH",
"792 200 OFFCURVE",
"770 151 OFFCURVE",
"728 121 CURVE SMOOTH",
"685 90 OFFCURVE",
"617 75 OFFCURVE",
"524 75 CURVE SMOOTH",
"358 75 LINE SMOOTH",
"339 75 OFFCURVE",
"323 76 OFFCURVE",
"307 78 CURVE",
"353 118 OFFCURVE",
"399 186 OFFCURVE",
"399 279 CURVE SMOOTH",
"399 372 OFFCURVE",
"342 458 OFFCURVE",
"225 458 CURVE SMOOTH",
"207 458 OFFCURVE",
"189 455 OFFCURVE",
"173 451 CURVE",
"173 760 LINE",
"84 760 LINE",
"84 395 LINE",
"56 362 OFFCURVE",
"39 317 OFFCURVE",
"39 266 CURVE SMOOTH",
"39 132 OFFCURVE",
"116 0 OFFCURVE",
"358 0 CURVE SMOOTH"
);
},
{
closed = 1;
nodes = (
"155 139 OFFCURVE",
"130 195 OFFCURVE",
"130 266 CURVE SMOOTH",
"130 330 OFFCURVE",
"167 384 OFFCURVE",
"220 384 CURVE SMOOTH",
"273 384 OFFCURVE",
"309 347 OFFCURVE",
"309 280 CURVE SMOOTH",
"309 207 OFFCURVE",
"273 145 OFFCURVE",
"213 106 CURVE"
);
}
);
width = 966;
}
);
},
{
glyphname = u10B5310B45;
lastChange = "2017-03-01 21:25:01 +0000";
layers = (
{
layerId = UUID0;
paths = (
{
closed = 1;
nodes = (
"508 0 LINE SMOOTH",
"755 0 OFFCURVE",
"939 118 OFFCURVE",
"939 419 CURVE",
"631 419 LINE SMOOTH",
"536 419 OFFCURVE",
"504 445 OFFCURVE",
"504 536 CURVE",
"416 536 LINE",
"416 395 OFFCURVE",
"479 345 OFFCURVE",
"633 345 CURVE SMOOTH",
"844 345 LINE",
"841 161 OFFCURVE",
"685 74 OFFCURVE",
"511 74 CURVE SMOOTH",
"424 74 LINE SMOOTH",
"380 74 OFFCURVE",
"342 77 OFFCURVE",
"309 83 CURVE",
"354 124 OFFCURVE",
"399 190 OFFCURVE",
"399 279 CURVE SMOOTH",
"399 372 OFFCURVE",
"343 458 OFFCURVE",
"220 458 CURVE SMOOTH",
"119 458 OFFCURVE",
"39 375 OFFCURVE",
"39 274 CURVE SMOOTH",
"39 86 OFFCURVE",
"181 0 OFFCURVE",
"421 0 CURVE SMOOTH"
);
},
{
closed = 1;
nodes = (
"158 146 OFFCURVE",
"130 200 OFFCURVE",
"130 273 CURVE SMOOTH",
"130 337 OFFCURVE",
"169 384 OFFCURVE",
"222 384 CURVE SMOOTH",
"274 384 OFFCURVE",
"309 347 OFFCURVE",
"309 280 CURVE SMOOTH",
"309 211 OFFCURVE",
"273 152 OFFCURVE",
"218 113 CURVE"
);
}
);
width = 970;
}
);
},
{
glyphname = u10B5510B45;
lastChange = "2017-03-01 21:25:01 +0000";
layers = (
{
layerId = UUID0;
paths = (
{
closed = 1;
nodes = (
"562 -10 OFFCURVE",
"627 168 OFFCURVE",
"629 402 CURVE",
"663 443 OFFCURVE",
"714 472 OFFCURVE",
"779 472 CURVE SMOOTH",
"854 472 OFFCURVE",
"896 426 OFFCURVE",
"896 342 CURVE SMOOTH",
"896 226 OFFCURVE",
"837 83 OFFCURVE",
"760 0 CURVE",
"865 0 LINE",
"933 79 OFFCURVE",
"987 228 OFFCURVE",
"987 338 CURVE SMOOTH",
"987 454 OFFCURVE",
"932 546 OFFCURVE",
"790 546 CURVE SMOOTH",
"724 546 OFFCURVE",
"667 525 OFFCURVE",
"624 495 CURVE",
"614 564 OFFCURVE",
"596 617 OFFCURVE",
"583 652 CURVE",
"495 652 LINE",
"527 574 OFFCURVE",
"543 494 OFFCURVE",
"543 409 CURVE SMOOTH",
"543 242 OFFCURVE",
"521 64 OFFCURVE",
"338 64 CURVE SMOOTH",
"322 64 OFFCURVE",
"308 65 OFFCURVE",
"294 67 CURVE",
"344 106 OFFCURVE",
"399 177 OFFCURVE",
"399 279 CURVE SMOOTH",
"399 372 OFFCURVE",
"342 458 OFFCURVE",
"225 458 CURVE SMOOTH",
"119 458 OFFCURVE",
"39 378 OFFCURVE",
"39 266 CURVE SMOOTH",
"39 125 OFFCURVE",
"122 -10 OFFCURVE",
"332 -10 CURVE SMOOTH"
);
},
{
closed = 1;
nodes = (
"154 140 OFFCURVE",
"130 201 OFFCURVE",
"130 266 CURVE SMOOTH",
"130 330 OFFCURVE",
"167 384 OFFCURVE",
"220 384 CURVE SMOOTH",
"273 384 OFFCURVE",
"309 347 OFFCURVE",
"309 280 CURVE SMOOTH",
"309 204 OFFCURVE",
"271 141 OFFCURVE",
"206 102 CURVE"
);
}
);
width = 1057;
}
);
},
{
glyphname = u10B4D10B43;
lastChange = "2017-03-01 21:25:01 +0000";
layers = (
{
layerId = UUID0;
paths = (
{
closed = 1;
nodes = (
"756 -105 LINE",
"756 536 LINE",
"668 536 LINE",
"668 -31 LINE",
"34 -31 LINE",
"34 -105 LINE"
);
},
{
closed = 1;
nodes = (
"89 -290 LINE",
"98 -255 OFFCURVE",
"135 -238 OFFCURVE",
"182 -238 CURVE SMOOTH",
"234 -238 OFFCURVE",
"265 -255 OFFCURVE",
"275 -290 CURVE",
"335 -290 LINE",
"323 -212 OFFCURVE",
"270 -169 OFFCURVE",
"183 -169 CURVE SMOOTH",
"101 -169 OFFCURVE",
"40 -215 OFFCURVE",
"29 -290 CURVE"
);
},
{
closed = 1;
nodes = (
"87 38 LINE SMOOTH",
"428 38 OFFCURVE",
"570 128 OFFCURVE",
"608 419 CURVE",
"355 419 LINE SMOOTH",
"217 419 OFFCURVE",
"173 441 OFFCURVE",
"173 536 CURVE",
"85 536 LINE",
"87 395 OFFCURVE",
"156 345 OFFCURVE",
"356 345 CURVE SMOOTH",
"503 345 LINE",
"469 180 OFFCURVE",
"357 112 OFFCURVE",
"110 112 CURVE SMOOTH",
"39 112 LINE",
"39 38 LINE"
);
}
);
width = 841;
}
);
},
